<svg xmlns="http://www.w3.org/2000/svg" width="24.37" height="29" viewBox="0 0 24.37 29">
  <path id="Icon_awesome-apple" data-name="Icon awesome-apple" d="M20.656,17.575a6.044,6.044,0,0,1,3.237-5.49A6.956,6.956,0,0,0,18.409,9.2c-2.3-.181-4.81,1.34-5.73,1.34-.971,0-3.2-1.275-4.946-1.275C4.121,9.32.281,12.143.281,17.886a16.137,16.137,0,0,0,.932,5.257c.829,2.376,3.82,8.2,6.941,8.106,1.632-.039,2.784-1.159,4.908-1.159,2.059,0,3.127,1.159,4.946,1.159,3.147-.045,5.853-5.341,6.643-7.724a6.418,6.418,0,0,1-3.995-5.95ZM16.992,6.944A6.1,6.1,0,0,0,18.545,2.25a6.865,6.865,0,0,0-4.4,2.26,6.193,6.193,0,0,0-1.657,4.655,5.438,5.438,0,0,0,4.5-2.221Z" transform="translate(-0.281 -2.25)" fill="#226db7"/>
</svg>
