<svg version="1.2" xmlns="http://www.w3.org/2000/svg" viewBox="0 0 640 512" width="640" height="512">
	<title>cloud-arrow-down-solid-svg</title>
	<style>
		.s0 { fill: #3d9eff } 
	</style>
	<path id="Layer" fill-rule="evenodd" class="s0" d="m144 480c-79.5 0-144-64.5-144-144 0-62.8 40.2-116.2 96.2-135.9q-0.2-4.1-0.2-8.1c0-88.4 71.6-160 160-160 59.3 0 111 32.3 138.7 80.2 15.2-11.1 33.6-16.2 53.3-16.2 53 0 96 42.1 96 96 0 12.2-2.3 23.8-6.4 34.6 58.4 11.8 102.4 63.5 102.4 125.4 0 70.7-57.3 128-128 128zm159-87.9c9.4 10.2 24.6 10.2 33.1 0l80-80c10.2-8.5 10.2-23.7 0-33.1-8.5-9.3-23.7-9.3-33.1 0l-39 39.1v-134.1c0-13.3-10.7-24-24-24-13.3 0-24 10.7-24 24v134.1l-39.9-39.1c-8.5-9.3-23.7-9.3-33.1 0-9.3 9.4-9.3 24.6 0 33.1z"/>
</svg>