<svg xmlns="http://www.w3.org/2000/svg" width="14.7" height="21" viewBox="0 0 14.7 21">
  <path id="Icon_material-lightbulb-outline" data-name="Icon material-lightbulb-outline" d="M11.7,22.95A1.053,1.053,0,0,0,12.75,24h4.2A1.053,1.053,0,0,0,18,22.95V21.9H11.7ZM14.85,3a7.347,7.347,0,0,0-4.2,13.377V18.75A1.053,1.053,0,0,0,11.7,19.8H18a1.053,1.053,0,0,0,1.05-1.05V16.377A7.347,7.347,0,0,0,14.85,3Zm2.992,11.655-.892.63V17.7h-4.2V15.285l-.892-.63a5.25,5.25,0,1,1,5.985,0Z" transform="translate(-7.5 -3)" fill="#9a9a9a"/>
</svg>
