<svg xmlns="http://www.w3.org/2000/svg" xmlns:xlink="http://www.w3.org/1999/xlink" width="190" height="592" viewBox="0 0 190 592">
  <defs>
    <clipPath id="clip-path">
      <rect id="Rectangle_1654" data-name="Rectangle 1654" width="190" height="592" transform="translate(1730)" fill="#fff" stroke="#707070" stroke-width="1"/>
    </clipPath>
  </defs>
  <g id="Mask_Group_12" data-name="Mask Group 12" transform="translate(-1730)" clip-path="url(#clip-path)">
    <path id="Union_96" data-name="Union 96" d="M2246.8,5118.12c-9.83-563.223,455.3-1028.065,1038.9-1038.251s1064.672,438.137,1074.5,1001.362S3904.9,6109.3,3321.3,6119.484c-6.483.113-13.033.17-19.49.17C2726.995,6119.7,2256.523,5675.088,2246.8,5118.12ZM5624.912,4094.371c-3.8-217.548,175.7-397.09,400.926-401.021s410.879,169.238,414.677,386.784-175.7,397.09-400.925,401.021c-2.5.044-5.024.065-7.516.066C5810.239,4481.235,5628.667,4309.5,5624.912,4094.371Z" transform="translate(-3879.443 -3820.253)" fill="#3d9eff"/>
  </g>
</svg>
