<svg xmlns="http://www.w3.org/2000/svg" width="24.63" height="16.42" viewBox="0 0 24.63 16.42">
  <path id="Icon_awesome-eye" data-name="Icon awesome-eye" d="M24.482,12.086A13.715,13.715,0,0,0,12.315,4.5,13.717,13.717,0,0,0,.149,12.086a1.383,1.383,0,0,0,0,1.248A13.715,13.715,0,0,0,12.315,20.92a13.717,13.717,0,0,0,12.166-7.586A1.383,1.383,0,0,0,24.482,12.086ZM12.315,18.868a6.158,6.158,0,1,1,6.158-6.158A6.158,6.158,0,0,1,12.315,18.868Zm0-10.263a4.076,4.076,0,0,0-1.082.162,2.046,2.046,0,0,1-2.861,2.861,4.1,4.1,0,1,0,3.943-3.023Z" transform="translate(0 -4.5)" fill="gray"/>
</svg>
