<svg xmlns="http://www.w3.org/2000/svg" width="21" height="18.502" viewBox="0 0 21 18.502">
  <g id="noun-screenshot-3971075" transform="translate(-84.001 -45.359)">
    <path id="Path_543" data-name="Path 543" d="M103.387,45.359H85.615A1.623,1.623,0,0,0,84,46.973V61.827a2.028,2.028,0,0,0,2.034,2.034h16.91A2.052,2.052,0,0,0,105,61.805V46.973a1.623,1.623,0,0,0-1.614-1.614ZM92,46.862a.862.862,0,1,1-.862.862A.849.849,0,0,1,92,46.862Zm-2.631,0a.862.862,0,1,1,0,1.724.862.862,0,0,1,0-1.724Zm-2.608,0a.862.862,0,1,1-.862.862.863.863,0,0,1,.862-.862ZM103.52,61.827a.547.547,0,0,1-.553.553H86.035a.547.547,0,0,1-.553-.553V50.067H103.5v11.76Z" transform="translate(0 0)" fill="#b5becc"/>
    <path id="Path_544" data-name="Path 544" d="M163.122,205.7h2.255v-1.3h-2.9a.641.641,0,0,0-.641.641v2.608h1.3V205.7Z" transform="translate(-74.766 -152.76)" fill="#b5becc"/>
    <path id="Path_545" data-name="Path 545" d="M450.814,208.209h1.3V205.6a.641.641,0,0,0-.641-.641h-2.918v1.3h2.255Z" transform="translate(-350.168 -153.301)" fill="#b5becc"/>
    <path id="Path_546" data-name="Path 546" d="M452.119,357.09v-2.608h-1.3v1.967H448.56v1.282h2.9A.647.647,0,0,0,452.119,357.09Z" transform="translate(-350.169 -296.921)" fill="#b5becc"/>
    <path id="Path_547" data-name="Path 547" d="M161.946,357.193h2.9v-1.3h-2.255v-1.967h-1.3v2.608A.651.651,0,0,0,161.946,357.193Z" transform="translate(-74.231 -296.382)" fill="#b5becc"/>
    <path id="Path_548" data-name="Path 548" d="M285.99,259.5a2.631,2.631,0,1,0-2.63-2.631A2.623,2.623,0,0,0,285.99,259.5Zm0-3.78a1.15,1.15,0,1,1-1.15,1.15A1.142,1.142,0,0,1,285.99,255.719Z" transform="translate(-191.489 -200.634)" fill="#b5becc"/>
  </g>
</svg>
