<svg xmlns="http://www.w3.org/2000/svg" width="20.691" height="20.691" viewBox="0 0 20.691 20.691">
  <g id="noun-settings-4811813" transform="translate(-75.758 -17.331)">
    <path id="Path_1" data-name="Path 1" d="M107.523,25.517l-2.227-.555c-.1-.272-.214-.538-.338-.807l1.186-1.972a.552.552,0,0,0-.083-.665l-2.313-2.313a.551.551,0,0,0-.665-.083l-1.972,1.186c-.265-.124-.534-.238-.807-.338l-.555-2.227a.542.542,0,0,0-.527-.414H95.959a.539.539,0,0,0-.527.414l-.555,2.227c-.272.1-.538.214-.807.338L92.1,19.123a.552.552,0,0,0-.665.083L89.12,21.519a.551.551,0,0,0-.083.665l1.186,1.972c-.124.265-.238.534-.338.807l-2.227.555a.542.542,0,0,0-.414.527v3.264a.539.539,0,0,0,.414.527l2.227.555c.1.272.214.538.338.807l-1.186,1.972a.552.552,0,0,0,.083.665l2.313,2.313a.551.551,0,0,0,.665.083l1.972-1.186c.265.124.534.238.807.338l.555,2.227a.542.542,0,0,0,.527.414h3.264a.539.539,0,0,0,.527-.414l.555-2.227c.272-.1.538-.214.807-.338l1.972,1.186a.552.552,0,0,0,.665-.083l2.313-2.313a.551.551,0,0,0,.083-.665L104.958,31.2c.124-.265.238-.534.338-.807l2.227-.555a.542.542,0,0,0,.414-.527V26.044A.539.539,0,0,0,107.523,25.517ZM97.6,32.576a4.9,4.9,0,1,1,4.9-4.9A4.906,4.906,0,0,1,97.6,32.576Z" transform="translate(-11.488)" fill="#b5becc"/>
  </g>
</svg>
