<svg xmlns="http://www.w3.org/2000/svg" width="29" height="29" viewBox="0 0 29 29">
  <path id="Icon_awesome-ubuntu" data-name="Icon awesome-ubuntu" d="M14.5.563A14.5,14.5,0,1,0,29,15.063,14.5,14.5,0,0,0,14.5.563ZM17.581,6a1.864,1.864,0,1,1,.684,2.549A1.864,1.864,0,0,1,17.581,6ZM5.11,16.928a1.865,1.865,0,1,1,1.865-1.865A1.866,1.866,0,0,1,5.11,16.928Zm1.643.181a2.62,2.62,0,0,0,0-4.087,8.04,8.04,0,0,1,3.3-4.625l1.386,2.315a5.319,5.319,0,0,0,0,8.7l-1.386,2.315A8.053,8.053,0,0,1,6.753,17.109Zm13.372,7.7a1.865,1.865,0,1,1,.684-2.549A1.858,1.858,0,0,1,20.125,24.809Zm.018-4.064A2.621,2.621,0,0,0,16.6,22.792a8.052,8.052,0,0,1-5.654-.55l1.316-2.356a5.32,5.32,0,0,0,7.536-4.35l2.7.041a8.037,8.037,0,0,1-2.356,5.169ZM19.8,14.589a5.32,5.32,0,0,0-7.536-4.35L10.945,7.883a8.051,8.051,0,0,1,5.654-.55,2.624,2.624,0,0,0,3.537,2.046,7.975,7.975,0,0,1,2.35,5.174Z" transform="translate(0 -0.563)" fill="#226db7"/>
</svg>
